{"title":"Nappily Ever After 2018 1080p WEB-DL DD 5.1 x264 [MW]","magnet":"magnet:?xt=urn:btih:ded155526476f0db5253a69cbe681122a366b33d&dn=Nappily+Ever+After+2018+1080p+WEB-DL+DD+5.1+x264+%5BMW%5D&tr=udp%3A%2F%2Ftracker.leechers-paradise.org%3A6969&tr=udp%3A%2F%2Fzer0day.ch%3A1337&tr=udp%3A%2F%2Fopen.demonii.com%3A1337&tr=udp%3A%2F%2Ftracker.coppersurfer.tk%3A6969&tr=udp%3A%2F%2Fexodus.desync.com%3A6969","uploader":"MFreaky","categoryP":"video","categoryS":"hd___movies","size":"1883331506","seeders":"1","leechers":"1","description":" <a href=\"https://pichub.site/image/EmYFI\" rel=\"nofollow\" target=\"_NEW\">https://pichub.site/image/EmYFI</a> <a href=\"\nhttps://pichub.site/image/EmIEX\" rel=\"nofollow\" target=\"_NEW\">\nhttps://pichub.site/image/EmIEX</a> <a href=\"\nhttps://pichub.site/image/EmOu8\" rel=\"nofollow\" target=\"_NEW\">\nhttps://pichub.site/image/EmOu8</a> <a href=\"\nhttps://pichub.site/image/EmR3J\" rel=\"nofollow\" target=\"_NEW\">\nhttps://pichub.site/image/EmR3J</a> <a href=\"\nhttps://pichub.site/image/EmE8h\" rel=\"nofollow\" target=\"_NEW\">\nhttps://pichub.site/image/EmE8h</a>\r\n\r\nIMDB <a href=\"\nhttps://www.imdb.com/title/tt0365545/\" rel=\"nofollow\" target=\"_NEW\">\nhttps://www.imdb.com/title/tt0365545/</a>\r\n\r\nVideo\r\nFormat                                   : AVC\r\nFormat/Info                              : Advanced Video Codec\r\nFormat profile                           : High@L4.1\r\nFormat settings                          : CABAC / 4 Ref Frames\r\nFormat settings, CABAC                   : Yes\r\nFormat settings, RefFrames               : 4 frames\r\nCodec ID                                 : V_MPEG4/ISO/AVC\r\nDuration                                 : 1 h 38 min\r\nBit rate                                 : 2 200 kb/s\r\nWidth                                    : 1 920 pixels\r\nHeight                                   : 960 pixels\r\nDisplay aspect ratio                     : 2.000\r\nFrame rate mode                          : Constant\r\nFrame rate                               : 23.976 (24000/1001) FPS\r\nColor space                              : YUV\r\nChroma subsampling                       : 4:2:0\r\nBit depth                                : 8 bits\r\nScan type                                : Progressive\r\nBits/(Pixel*Frame)                       : 0.050\r\nStream size                              : 1.49 GiB (85%)\r\nWriting library                          : x264 core 155 r2901 7d0ff22\r\n\r\nAudio\r\nFormat                                   : AC-3\r\nFormat/Info                              : Audio Coding 3\r\nCodec ID                                 : A_AC3\r\nDuration                                 : 1 h 38 min\r\nBit rate mode                            : Constant\r\nBit rate                                 : 384 kb/s\r\nChannel(s)                               : 6 channels\r\nChannel positions                        : Front: L C R, Side: L R, LFE\r\nSampling rate                            : 48.0 kHz\r\nFrame rate                               : 31.250 FPS (1536 SPF)\r\nBit depth                                : 16 bits\r\nCompression mode                         : Lossy\r\nStream size                              : 271 MiB (15%)\r\nLanguage                                 : English","last_updated":"2018-09-22T12:07:03.081Z","parsed":{"xt":"urn:btih:ded155526476f0db5253a69cbe681122a366b33d","dn":"Nappily Ever After 2018 1080p WEB-DL DD 5.1 x264 [MW]","tr":["udp://exodus.desync.com:6969","udp://open.demonii.com:1337","udp://tracker.coppersurfer.tk:6969","udp://tracker.leechers-paradise.org:6969","udp://zer0day.ch:1337"],"infoHash":"ded155526476f0db5253a69cbe681122a366b33d","infoHashBuffer":{"type":"Buffer","data":[222,209,85,82,100,118,240,219,82,83,166,156,190,104,17,34,163,102,179,61]},"name":"Nappily Ever After 2018 1080p WEB-DL DD 5.1 x264 [MW]","announce":["udp://exodus.desync.com:6969","udp://open.demonii.com:1337","udp://tracker.coppersurfer.tk:6969","udp://tracker.leechers-paradise.org:6969","udp://zer0day.ch:1337"],"urlList":[]}}